<svg width="25" height="28" viewBox="0 0 25 28" fill="none" xmlns="http://www.w3.org/2000/svg">
<g clip-path="url(#clip0_2001_6848)">
<path d="M4.06815 9.2076C3.86564 9.7848 4.13903 10.2607 4.56432 10.4125C4.88834 10.5341 5.20224 10.3822 5.46551 10.1696C6.38697 9.49113 7.26791 9.18735 8.32099 9.57214C9.37408 9.94681 9.79937 10.7265 9.98162 11.8099C10.0323 12.1644 10.1538 12.4479 10.4575 12.5592C10.7816 12.6807 11.055 12.539 11.3284 12.3061C11.9359 11.7897 12.7561 11.5264 13.5358 11.5669L9.05005 23.8596C8.88804 24.295 9.12093 24.7913 9.56646 24.9533C9.99175 25.1051 10.498 24.8722 10.6601 24.4368L15.1357 12.1441C15.7533 12.62 16.1988 13.3491 16.3305 14.1388C16.4014 14.4731 16.5128 14.7667 16.8267 14.8781C17.1406 14.9894 17.414 14.8375 17.6874 14.6148C18.5278 13.906 19.3378 13.582 20.391 13.9566C21.444 14.3515 21.93 15.1413 22.1933 16.2754C22.2744 16.5995 22.406 16.9134 22.73 17.0248C23.1553 17.1767 23.692 16.9943 23.8844 16.4172C25.2615 12.6403 24.3198 6.34199 18.2241 3.64853L18.7506 2.22079C18.9227 1.7145 18.7303 1.25884 18.2443 1.07658C17.7785 0.904436 17.3228 1.13733 17.1406 1.63349L16.6241 3.07136C10.2246 1.20821 5.44526 5.41042 4.06815 9.2076ZM6.43759 8.03301C8.15898 5.39017 11.3992 3.71941 15.0243 4.33709C13.394 5.41042 11.8245 7.29383 10.8018 9.72406C10.3968 8.94433 9.7386 8.40766 8.86779 8.10389C8.04759 7.81024 7.24766 7.77987 6.43759 8.03301ZM12.027 10.2303C13.1813 7.48621 15.1255 5.51168 16.8874 4.80287C17.7988 6.48376 18.0215 9.23798 17.1406 12.1036C16.6546 11.2631 15.8344 10.5848 14.9129 10.2404C13.9914 9.90629 12.9283 9.90629 12.027 10.2303ZM18.3962 12.4884C19.186 9.96703 19.1961 7.52672 18.6392 5.65344C21.7984 7.51659 23.2059 10.8784 22.8212 13.9971C22.3655 13.2883 21.7276 12.7921 20.9276 12.4884C20.0568 12.1745 19.2062 12.1543 18.3962 12.4884Z" fill="#FEFEFE" style="fill:#FEFEFE;fill:color(display-p3 0.9958 0.9958 0.9958);fill-opacity:1;"/>
</g>
<defs>
<clipPath id="clip0_2001_6848">
<rect width="24.1994" height="28" fill="white" style="fill:white;fill-opacity:1;"/>
</clipPath>
</defs>
</svg>
