<svg width="17" height="17" viewBox="0 0 17 17" fill="none" xmlns="http://www.w3.org/2000/svg">
<g clip-path="url(#clip0_2001_6814)">
<path d="M6.46486 16.5002C6.85466 16.5002 7.16288 16.3279 7.38044 15.9925L15.947 2.50356C16.1102 2.24067 16.1736 2.04124 16.1736 1.83274C16.1736 1.33415 15.8473 1.00781 15.3487 1.00781C14.9861 1.00781 14.7866 1.12566 14.5691 1.47014L6.4286 14.4423L2.20424 8.91263C1.97761 8.59531 1.75099 8.46845 1.42464 8.46845C0.907923 8.46845 0.554382 8.82196 0.554382 9.32052C0.554382 9.52908 0.645034 9.76478 0.817272 9.9823L5.52209 15.9744C5.79404 16.3279 6.07506 16.5002 6.46486 16.5002Z" fill="#3E90F0" style="fill:#3E90F0;fill:color(display-p3 0.2449 0.5651 0.9411);fill-opacity:1;"/>
</g>
<defs>
<clipPath id="clip0_2001_6814">
<rect width="15.8912" height="16" fill="white" style="fill:white;fill-opacity:1;" transform="translate(0.554382 0.5)"/>
</clipPath>
</defs>
</svg>
