<svg width="24" height="16" viewBox="0 0 24 16" fill="none" xmlns="http://www.w3.org/2000/svg">
<g clip-path="url(#clip0_2001_6734)">
<path d="M11.8031 15.2326C12.1427 15.2326 12.4822 15.0967 12.7131 14.8386L23.2259 4.06783C23.4568 3.83693 23.5926 3.53811 23.5926 3.19856C23.5926 2.49227 23.0628 1.94897 22.3566 1.94897C22.017 1.94897 21.7047 2.0848 21.4737 2.30212L11.0696 12.9371H12.523L2.11884 2.30212C1.90153 2.0848 1.58913 1.94897 1.236 1.94897C0.529712 1.94897 0 2.49227 0 3.19856C0 3.53811 0.135824 3.83693 0.366724 4.08141L10.8795 14.8386C11.1375 15.0967 11.4499 15.2326 11.8031 15.2326Z" fill="#E8ECEF" style="fill:#E8ECEF;fill:color(display-p3 0.9103 0.9267 0.9377);fill-opacity:1;"/>
</g>
<defs>
<clipPath id="clip0_2001_6734">
<rect width="24" height="14.4653" fill="white" style="fill:white;fill-opacity:1;" transform="translate(0 0.767334)"/>
</clipPath>
</defs>
</svg>
