<svg width="32" height="32" viewBox="0 0 32 32" fill="none" xmlns="http://www.w3.org/2000/svg">
<path opacity="0.2" d="M32 16C32 24.8366 24.8366 32 16 32C7.16344 32 0 24.8366 0 16C0 7.16344 7.16344 0 16 0C24.8366 0 32 7.16344 32 16ZM4.78075 16C4.78075 22.1962 9.80378 27.2192 16 27.2192C22.1962 27.2192 27.2192 22.1962 27.2192 16C27.2192 9.80378 22.1962 4.78075 16 4.78075C9.80378 4.78075 4.78075 9.80378 4.78075 16Z" fill="white" style="fill:white;fill-opacity:1;"/>
<path d="M16 2.39037C16 1.07021 17.0761 -0.018274 18.3815 0.178229C20.0774 0.433505 21.7265 0.96059 23.2638 1.7439C25.5136 2.89021 27.4601 4.55269 28.9443 6.59544C30.4284 8.63818 31.408 11.0032 31.803 13.497C32.198 15.9909 31.9972 18.5429 31.2169 20.9443C30.4366 23.3457 29.0991 25.5283 27.3137 27.3137C25.5283 29.0991 23.3457 30.4366 20.9443 31.2169C18.5429 31.9972 15.9909 32.198 13.4971 31.803C11.7929 31.5331 10.149 30.9902 8.62689 30.1999C7.45525 29.5915 7.22449 28.0785 8.00047 27.0104C8.77644 25.9424 10.2659 25.7332 11.4739 26.2658C12.3556 26.6545 13.2867 26.9294 14.2449 27.0811C15.9936 27.3581 17.7831 27.2173 19.4669 26.6701C21.1508 26.123 22.6813 25.1852 23.9332 23.9332C25.1852 22.6813 26.123 21.1508 26.6701 19.4669C27.2173 17.7831 27.3581 15.9936 27.0811 14.2449C26.8042 12.4962 26.1172 10.8379 25.0766 9.40549C24.0359 7.97311 22.671 6.80737 21.0934 6.00357C20.229 5.56311 19.3141 5.23819 18.3724 5.03444C17.082 4.75528 16 3.71054 16 2.39037Z" fill="#3FDD78" style="fill:#3FDD78;fill:color(display-p3 0.2456 0.8667 0.4693);fill-opacity:1;"/>
</svg>
