<svg width="32" height="32" viewBox="0 0 32 32" fill="none" xmlns="http://www.w3.org/2000/svg">
<path opacity="0.2" d="M32 16C32 24.8366 24.8366 32 16 32C7.16344 32 0 24.8366 0 16C0 7.16344 7.16344 0 16 0C24.8366 0 32 7.16344 32 16ZM4.78075 16C4.78075 22.1962 9.80378 27.2192 16 27.2192C22.1962 27.2192 27.2192 22.1962 27.2192 16C27.2192 9.80378 22.1962 4.78075 16 4.78075C9.80378 4.78075 4.78075 9.80378 4.78075 16Z" fill="white" style="fill:white;fill-opacity:1;"/>
<path d="M16 2.39037C16 1.07021 17.0761 -0.018274 18.3815 0.178229C20.0774 0.433505 21.7265 0.96059 23.2638 1.7439C25.5136 2.89021 27.4601 4.55269 28.9443 6.59544C30.4284 8.63818 31.408 11.0032 31.803 13.497C32.0729 15.2012 32.0646 16.9324 31.7833 18.6242C31.5668 19.9265 30.1991 20.6136 28.9435 20.2056C27.688 19.7976 27.0287 18.4457 27.162 17.1323C27.2592 16.1737 27.2329 15.2032 27.0811 14.2449C26.8042 12.4962 26.1172 10.8379 25.0766 9.40549C24.0359 7.97311 22.671 6.80737 21.0934 6.00357C20.229 5.56311 19.3141 5.23819 18.3724 5.03444C17.082 4.75528 16 3.71054 16 2.39037Z" fill="url(#paint0_linear_2001_3653)" style=""/>
<defs>
<linearGradient id="paint0_linear_2001_3653" x1="16" y1="0" x2="16" y2="32" gradientUnits="userSpaceOnUse">
<stop stop-color="#60CB8B" style="stop-color:#60CB8B;stop-color:color(display-p3 0.3765 0.7961 0.5443);stop-opacity:1;"/>
<stop offset="1" stop-color="#58BB80" style="stop-color:#58BB80;stop-color:color(display-p3 0.3469 0.7325 0.5019);stop-opacity:1;"/>
</linearGradient>
</defs>
</svg>
