<svg width="24" height="28" viewBox="0 0 24 28" fill="none" xmlns="http://www.w3.org/2000/svg">
<path d="M21.9537 6.67589V23.3158C21.9537 25.6546 20.7899 26.8183 18.4848 26.8183H10.6644C12.5698 26.5516 14.5496 26.1561 16.7615 25.5427C19.0331 24.8936 20.0737 23.4388 20.0737 20.8316V4.44903C20.0737 4.06937 20.0448 3.71116 19.9857 3.37842C21.2947 3.81502 21.9537 4.91594 21.9537 6.67589Z" fill="white" fill-opacity="0.85" style="fill:white;fill-opacity:0.85;"/>
<path d="M1.71057 22.969C1.71057 24.916 2.91912 25.9232 4.98931 25.8001C8.74924 25.5987 12.0727 25.2518 16.3474 24.0768C17.9364 23.6292 18.5519 22.7899 18.5519 20.8316V4.44908C18.5519 2.22222 17.3546 1.13677 15.206 1.64032C12.0727 2.34531 8.74924 2.90482 4.72075 3.13982C2.90793 3.25172 1.71057 4.28123 1.71057 6.30666V22.969ZM3.5122 22.6444V6.2619C3.5122 5.32192 4.09409 4.95264 4.93336 4.90788C8.78281 4.70646 12.0392 4.14694 15.1053 3.45315C16.146 3.21816 16.7503 3.75529 16.7503 4.7624V20.7645C16.7503 21.794 16.4034 22.2528 15.5417 22.4765C12.0392 23.4502 8.78281 23.8082 5.06765 23.9985C4.09409 24.0432 3.5122 23.5508 3.5122 22.6444Z" fill="white" fill-opacity="0.85" style="fill:white;fill-opacity:0.85;"/>
<path d="M5.97404 8.86923C9.14088 8.66782 11.6923 8.2314 14.2995 7.6495C14.8143 7.53759 14.9374 7.28022 14.9374 6.9669C14.9374 6.62 14.6689 6.31786 14.1765 6.41857C11.6923 6.9669 9.14088 7.41451 5.97404 7.61593C5.52643 7.6495 5.32501 7.91807 5.32501 8.26496C5.32501 8.62305 5.59358 8.89162 5.97404 8.86923ZM5.97404 12.4725C9.14088 12.271 11.6923 11.8235 14.2995 11.2527C14.8143 11.1408 14.9374 10.8835 14.9374 10.5702C14.9374 10.2233 14.6689 9.92112 14.1765 10.0219C11.6923 10.5702 9.14088 11.0177 5.97404 11.2192C5.52643 11.2527 5.32501 11.5213 5.32501 11.857C5.32501 12.2151 5.59358 12.4949 5.97404 12.4725ZM5.97404 16.0757C9.14088 15.8744 11.6923 15.4267 14.2995 14.8561C14.8143 14.7441 14.9374 14.4867 14.9374 14.1734C14.9374 13.8265 14.6689 13.5243 14.1765 13.6251C11.6923 14.1734 9.14088 14.6211 5.97404 14.8224C5.52643 14.8561 5.32501 15.1246 5.32501 15.4603C5.32501 15.8184 5.59358 16.0981 5.97404 16.0757ZM5.97404 19.6678C7.80925 19.5672 9.02898 19.3881 10.2375 19.1978C10.6068 19.1307 10.8082 18.8397 10.8082 18.5488C10.8082 18.2131 10.5396 17.8885 10.0361 17.9781C8.96184 18.146 7.77567 18.3138 5.97404 18.4145C5.52643 18.4481 5.32501 18.7166 5.32501 19.0524C5.32501 19.4105 5.59358 19.6902 5.97404 19.6678Z" fill="white" fill-opacity="0.85" style="fill:white;fill-opacity:0.85;"/>
</svg>
