<svg width="48" height="48" viewBox="0 0 48 48" fill="none" xmlns="http://www.w3.org/2000/svg">
<rect width="48" height="48" rx="24" fill="url(#paint0_linear_2001_2925)" style=""/>
<g clip-path="url(#clip0_2001_2925)">
<path d="M17.0466 37.987H30.9095C33.5986 37.987 34.9562 36.6163 34.9562 33.9011V14.0988C34.9562 11.3706 33.6117 10 30.9095 10H27.0327C26.5888 10 26.3016 10.3133 26.3016 10.7832C26.3016 12.1408 25.3618 13.0937 23.9781 13.0937C22.5944 13.0937 21.6415 12.1408 21.6415 10.7832C21.6415 10.3133 21.3543 10 20.9105 10H17.0466C14.3445 10 13 11.3706 13 14.0988V33.9011C13 36.6163 14.3576 37.987 17.0466 37.987ZM17.151 35.8854C15.7935 35.8854 15.1016 35.1543 15.1016 33.862V14.138C15.1016 12.8326 15.7935 12.1016 17.151 12.1016H20.8713L19.6573 11.3576C19.8923 13.642 21.5893 15.1301 23.9781 15.1301C26.3669 15.1301 28.0638 13.642 28.3119 11.3576L27.0848 12.1016H30.8052C32.1627 12.1016 32.8545 12.8326 32.8545 14.138V33.862C32.8545 35.1543 32.1627 35.8854 30.8052 35.8854H17.151ZM19.0308 19.7249H28.9385C29.3954 19.7249 29.7347 19.3725 29.7347 18.9026C29.7347 18.4587 29.3954 18.1063 28.9385 18.1063H19.0308C18.5608 18.1063 18.2214 18.4587 18.2214 18.9026C18.2214 19.3725 18.5608 19.7249 19.0308 19.7249ZM19.0308 24.359H23.717C24.187 24.359 24.5264 24.0065 24.5264 23.5627C24.5264 23.1058 24.187 22.7534 23.717 22.7534H19.0308C18.5608 22.7534 18.2214 23.1058 18.2214 23.5627C18.2214 24.0065 18.5608 24.359 19.0308 24.359Z" fill="#FEFEFE" style="fill:#FEFEFE;fill:color(display-p3 0.9958 0.9958 0.9958);fill-opacity:1;"/>
</g>
<defs>
<linearGradient id="paint0_linear_2001_2925" x1="24" y1="0" x2="24" y2="48" gradientUnits="userSpaceOnUse">
<stop stop-color="#CBAD60" style="stop-color:#CBAD60;stop-color:color(display-p3 0.7961 0.6786 0.3765);stop-opacity:1;"/>
<stop offset="1" stop-color="#A78F51" style="stop-color:#A78F51;stop-color:color(display-p3 0.6551 0.5609 0.3192);stop-opacity:1;"/>
</linearGradient>
<clipPath id="clip0_2001_2925">
<rect width="22.3478" height="28" fill="white" style="fill:white;fill-opacity:1;" transform="translate(13 10)"/>
</clipPath>
</defs>
</svg>
