<svg width="28" height="20" viewBox="0 0 28 20" fill="none" xmlns="http://www.w3.org/2000/svg">
<g clip-path="url(#clip0_2001_6839)">
<path d="M11.9672 12.2105C11.5851 12.524 11.2447 12.8616 10.9516 13.216C10.0863 12.7671 9.06894 12.5011 7.99864 12.5011C4.97488 12.5011 2.35797 14.6371 2.35797 16.9304C2.35797 17.1153 2.45044 17.1893 2.63538 17.1893H9.32579C9.33967 17.7022 9.47295 18.1676 9.738 18.5579H2.86655C1.60896 18.5579 0.980164 18.0493 0.980164 17.0136C0.980164 13.9436 4.12415 11.1325 7.99864 11.1325C9.47358 11.1325 10.8404 11.538 11.9672 12.2105ZM11.4756 6.2686C11.4756 8.36768 9.91278 10.0784 8.00787 10.0784C6.10301 10.0784 4.54027 8.37691 4.54027 6.2871C4.54027 4.2435 6.10301 2.56055 8.00787 2.56055C9.93125 2.56055 11.4756 4.21577 11.4756 6.2686ZM5.91807 6.2871C5.91807 7.61867 6.87976 8.70059 8.00787 8.70059C9.14525 8.70059 10.107 7.61867 10.107 6.2686C10.107 4.96477 9.17302 3.93835 8.00787 3.93835C6.87051 3.93835 5.91807 4.98326 5.91807 6.2871Z" fill="#6C7275" style="fill:#6C7275;fill:color(display-p3 0.4240 0.4469 0.4583);fill-opacity:1;"/>
<path d="M18.6605 9.99537C20.8613 9.99537 22.6552 8.04424 22.6552 5.65851C22.6552 3.29127 20.8705 1.43262 18.6605 1.43262C16.4689 1.43262 14.6657 3.32826 14.6657 5.677C14.6657 8.05349 16.4689 9.99537 18.6605 9.99537ZM18.6605 8.59909C17.3104 8.59909 16.1546 7.31373 16.1546 5.677C16.1546 4.06802 17.292 2.82892 18.6605 2.82892C20.0383 2.82892 21.1664 4.04028 21.1664 5.65851C21.1664 7.29523 20.029 8.59909 18.6605 8.59909ZM12.8534 18.5581H24.4676C26.0026 18.5581 26.7331 18.0957 26.7331 17.0786C26.7331 14.6558 23.6724 11.1512 18.6605 11.1512C13.6394 11.1512 10.5786 14.6558 10.5786 17.0786C10.5786 18.0957 11.3091 18.5581 12.8534 18.5581ZM12.4095 17.1618C12.1691 17.1618 12.0674 17.0971 12.0674 16.9029C12.0674 15.3771 14.4161 12.5476 18.6605 12.5476C22.8956 12.5476 25.2444 15.3771 25.2444 16.9029C25.2444 17.0971 25.1519 17.1618 24.9115 17.1618H12.4095Z" fill="#6C7275" style="fill:#6C7275;fill:color(display-p3 0.4240 0.4469 0.4583);fill-opacity:1;"/>
</g>
<defs>
<clipPath id="clip0_2001_6839">
<rect width="28" height="19.6314" fill="white" style="fill:white;fill-opacity:1;" transform="translate(0 0.184082)"/>
</clipPath>
</defs>
</svg>
