<svg width="24" height="24" viewBox="0 0 24 24" fill="none" xmlns="http://www.w3.org/2000/svg">
<g clip-path="url(#clip0_2001_6726)">
<path d="M0 11.9927C0 12.6928 0.585715 13.2641 1.27143 13.2641H10.5143V22.5071C10.5143 23.1928 11.0857 23.7784 11.7857 23.7784C12.4857 23.7784 13.0715 23.1928 13.0715 22.5071V13.2641H22.3C22.9858 13.2641 23.5714 12.6928 23.5714 11.9927C23.5714 11.2927 22.9858 10.707 22.3 10.707H13.0715V1.47846C13.0715 0.792746 12.4857 0.207031 11.7857 0.207031C11.0857 0.207031 10.5143 0.792746 10.5143 1.47846V10.707H1.27143C0.585715 10.707 0 11.2927 0 11.9927Z" fill="#E8ECEF" style="fill:#E8ECEF;fill:color(display-p3 0.9103 0.9267 0.9377);fill-opacity:1;"/>
</g>
<defs>
<clipPath id="clip0_2001_6726">
<rect width="24" height="23.5858" fill="white" style="fill:white;fill-opacity:1;" transform="translate(0 0.207031)"/>
</clipPath>
</defs>
</svg>
