<svg width="16" height="16" viewBox="0 0 16 16" fill="none" xmlns="http://www.w3.org/2000/svg">
<path d="M10.6667 5.33346V3.00057C10.6667 2.44607 10.6667 2.16883 10.5499 1.99845C10.4478 1.84958 10.2898 1.74846 10.1118 1.71818C9.90819 1.68353 9.65646 1.79971 9.153 2.03208L3.23934 4.76146C2.79034 4.96869 2.56583 5.07231 2.4014 5.23301C2.25604 5.37508 2.14508 5.5485 2.077 5.74002C2 5.95666 2 6.20392 2 6.69844V10.0001M11 9.6668H11.0067M2 7.4668L2 11.8668C2 12.6135 2 12.9869 2.14532 13.2721C2.27316 13.523 2.47713 13.727 2.72801 13.8548C3.01323 14.0001 3.3866 14.0001 4.13333 14.0001H11.8667C12.6134 14.0001 12.9868 14.0001 13.272 13.8548C13.5229 13.727 13.7268 13.523 13.8547 13.2721C14 12.9869 14 12.6135 14 11.8668V7.4668C14 6.72006 14 6.34669 13.8547 6.06148C13.7268 5.81059 13.5229 5.60662 13.272 5.47879C12.9868 5.33346 12.6134 5.33346 11.8667 5.33346L4.13333 5.33346C3.3866 5.33346 3.01323 5.33346 2.72801 5.47879C2.47713 5.60662 2.27316 5.81059 2.14532 6.06148C2 6.34669 2 6.72006 2 7.4668ZM11.3333 9.6668C11.3333 9.85089 11.1841 10.0001 11 10.0001C10.8159 10.0001 10.6667 9.85089 10.6667 9.6668C10.6667 9.4827 10.8159 9.33346 11 9.33346C11.1841 9.33346 11.3333 9.4827 11.3333 9.6668Z" stroke="white" style="stroke:white;stroke-opacity:1;" stroke-width="1.33333" stroke-linecap="round" stroke-linejoin="round"/>
</svg>
